<?xml version="1.0" encoding="iso-8859-1"?>
<!-- Generator: Adobe Illustrator 19.0.0, SVG Export Plug-In . SVG Version: 6.00 Build 0)  -->
<svg version="1.1" id="Layer_1" xmlns="http://www.w3.org/2000/svg" xmlns:xlink="http://www.w3.org/1999/xlink" x="0px" y="0px"
	 viewBox="0 0 511.999 511.999" style="enable-background:new 0 0 511.999 511.999;" xml:space="preserve">
<g>
	<g>
		<g>
			<path d="M189.435,166.464h97.079c8.544,8.026,20.027,12.959,32.647,12.959c26.318,0,47.728-21.411,47.728-47.727
				c0-26.318-21.411-47.728-47.728-47.728c-17.561,0-32.927,9.541-41.214,23.704h-88.512c-10.458,0-18.966,8.508-18.966,18.966
				V147.5C170.469,157.955,178.977,166.464,189.435,166.464z M319.161,99.941c17.509,0,31.754,14.246,31.754,31.754
				c0,17.509-14.245,31.753-31.754,31.753c-17.509,0-31.753-14.245-31.753-31.753C287.408,114.186,301.652,99.941,319.161,99.941z
				 M186.443,126.637c0-1.621,1.371-2.992,2.992-2.992h82.691c-0.447,2.619-0.692,5.305-0.692,8.051
				c0,6.671,1.38,13.023,3.862,18.795h-85.861c-1.622,0-2.992-1.37-2.992-2.992V126.637z"/>
			<path d="M307.115,226.979H202.641c-4.411,0-7.987,3.575-7.987,7.987c0,4.412,3.576,7.987,7.987,7.987h104.473
				c4.411,0,7.987-3.575,7.987-7.987C315.102,230.554,311.526,226.979,307.115,226.979z"/>
			<path d="M96.802,209.048c-4.411,0-7.987,3.575-7.987,7.987v84.916c0,4.412,3.576,7.987,7.987,7.987s7.987-3.575,7.987-7.987
				v-84.916C104.789,212.623,101.214,209.048,96.802,209.048z"/>
			<path d="M290.654,260.65H219.1c-4.411,0-7.987,3.575-7.987,7.987c0,4.412,3.576,7.987,7.987,7.987h71.554
				c4.411,0,7.987-3.575,7.987-7.987C298.641,264.225,295.065,260.65,290.654,260.65z"/>
			<path d="M314.926,193.309H194.829c-4.411,0-7.987,3.575-7.987,7.987c0,4.412,3.576,7.987,7.987,7.987h120.097
				c4.411,0,7.987-3.575,7.987-7.987C322.913,196.885,319.337,193.309,314.926,193.309z"/>
			<path d="M227.848,355.21c9.918,8.068,18.152,11.825,26.696,12.182c0.111,0.005,0.221,0.007,0.333,0.007s0.223-0.002,0.333-0.007
				c8.544-0.357,16.777-4.114,26.695-12.182c38.671-31.452,68.927-79.295,89.93-142.197c20.159-60.378,24.791-114.64,25.731-129.834
				c0.329-5.324-1.864-11.044-5.868-15.303c-4.281-4.553-10.283-7.062-16.9-7.062H134.955c-6.616,0-12.618,2.507-16.899,7.062
				c-4.003,4.259-6.197,9.979-5.868,15.303c0.939,15.193,5.571,69.456,25.731,129.834
				C158.922,275.915,189.179,323.758,227.848,355.21z M129.693,78.817c1.266-1.347,3.036-2.029,5.261-2.029h239.843
				c2.226,0,3.996,0.683,5.262,2.029c1.256,1.335,1.595,2.852,1.562,3.376c-0.908,14.703-5.394,67.224-24.939,125.76
				c-20.027,59.981-48.578,105.357-84.858,134.865c-6.912,5.623-12.159,8.288-16.948,8.597c-4.789-0.309-10.036-2.974-16.948-8.597
				c-36.28-29.508-64.831-74.883-84.858-134.865c-19.545-58.536-24.029-111.057-24.939-125.76
				C128.099,81.668,128.438,80.152,129.693,78.817z"/>
			<path d="M399.1,382.701c-4.411,0-7.987,3.575-7.987,7.987v54.147c0,4.412,3.576,7.987,7.987,7.987s7.987-3.575,7.987-7.987
				v-54.147C407.087,386.277,403.511,382.701,399.1,382.701z"/>
			<path d="M417.061,231.673c-4.411,0-7.987,3.575-7.987,7.987v73.561c0,4.412,3.576,7.987,7.987,7.987s7.987-3.575,7.987-7.987
				V239.66C425.048,235.248,421.472,231.673,417.061,231.673z"/>
			<path d="M425.081,0H86.918C67.38,0,51.483,15.896,51.483,35.435v441.13c0,19.539,15.896,35.435,35.436,35.435h338.162
				c19.539,0,35.436-15.896,35.436-35.435V35.435C460.516,15.896,444.62,0,425.081,0z M425.081,496.026H86.918
				c-10.731,0-19.462-8.73-19.462-19.461V35.435c0-10.73,8.731-19.461,19.462-19.461h338.162c10.731,0,19.462,8.73,19.462,19.461
				v441.131h0C444.542,487.296,435.812,496.026,425.081,496.026z"/>
			<path d="M350.914,294.566v41.345c0,4.412,3.576,7.987,7.987,7.987s7.987-3.575,7.987-7.987v-41.345
				c0-4.412-3.576-7.987-7.987-7.987S350.914,290.155,350.914,294.566z"/>
			<path d="M126.081,324.283c-4.411,0-7.987,3.575-7.987,7.987v54.144c0,4.412,3.576,7.987,7.987,7.987s7.987-3.575,7.987-7.987
				V332.27C134.068,327.858,130.492,324.283,126.081,324.283z"/>
			<path d="M356.707,395.352H153.049c-10.458,0-18.966,8.509-18.966,18.968v39.07c0,10.458,8.509,18.966,18.966,18.966h203.658
				c10.458,0,18.966-8.508,18.966-18.966v-39.07C375.673,403.861,367.164,395.352,356.707,395.352z M359.699,453.39
				c0,1.622-1.371,2.992-2.992,2.992H153.049c-1.622,0-2.992-1.37-2.992-2.992v-39.07c0-1.622,1.371-2.994,2.992-2.994h203.658
				c1.622,0,2.992,1.371,2.992,2.994V453.39z"/>
			<path d="M302.116,425.867h-94.479c-4.411,0-7.987,3.575-7.987,7.987s3.576,7.987,7.987,7.987h94.479
				c4.411,0,7.987-3.575,7.987-7.987C310.103,429.443,306.527,425.867,302.116,425.867z"/>
		</g>
	</g>
</g>
<g>
</g>
<g>
</g>
<g>
</g>
<g>
</g>
<g>
</g>
<g>
</g>
<g>
</g>
<g>
</g>
<g>
</g>
<g>
</g>
<g>
</g>
<g>
</g>
<g>
</g>
<g>
</g>
<g>
</g>
</svg>
