<?xml version="1.0" encoding="iso-8859-1"?>
<!-- Generator: Adobe Illustrator 19.0.0, SVG Export Plug-In . SVG Version: 6.00 Build 0)  -->
<svg version="1.1" id="Layer_1" xmlns="http://www.w3.org/2000/svg" xmlns:xlink="http://www.w3.org/1999/xlink" x="0px" y="0px"
	 viewBox="0 0 512.003 512.003" style="enable-background:new 0 0 512.003 512.003;" xml:space="preserve">
<g>
	<g>
		<path d="M473.676,38.311c-24.695-24.693-57.679-38.293-92.879-38.293c-35.2,0-68.184,13.598-92.869,38.284l-54.501,54.373
			c-18.957,19.023-31.472,43.083-36.193,69.579c-4.612,25.882-1.52,52.221,8.944,76.177c6.543,14.937,15.702,28.42,27.262,40.116
			c11.685,11.686,25.197,20.864,40.159,27.281c16.724,7.298,34.607,11.004,52.691,11.004c7.803,0,15.646-0.691,23.442-2.081
			c26.497-4.721,50.556-17.236,69.6-36.214l54.346-54.473c24.714-24.715,38.324-57.721,38.324-92.942
			C512,96.122,498.396,63.166,473.676,38.311z M460.07,210.478l-54.333,54.46c-32.392,32.278-82.412,41.625-124.478,23.254
			l-0.062-0.027c-12.715-5.449-24.21-13.26-34.124-23.175c-9.857-9.973-17.692-21.505-23.281-34.265
			c-18.372-42.06-9.027-92.084,23.233-124.457l54.49-54.36c21.062-21.062,49.217-32.66,79.28-32.66
			c30.064,0,58.22,11.599,79.264,32.641c21.094,21.21,32.712,49.351,32.712,79.237C492.771,161.208,481.161,189.387,460.07,210.478z
			"/>
	</g>
</g>
<g>
	<g>
		<path d="M230.105,331.738L122.43,439.412l-49.858-49.857l113.444-113.443l-13.597-13.596L0,434.935l77.05,77.05l166.652-166.651
			L230.105,331.738z M77.05,484.793l-49.857-49.858l31.783-31.783l49.857,49.858L77.05,484.793z"/>
	</g>
</g>
<g>
	<g>
		
			<rect x="185.368" y="297.796" transform="matrix(0.7071 -0.7071 0.7071 0.7071 -167.0527 230.7239)" width="19.228" height="38.432"/>
	</g>
</g>
<g>
	<g>
		
			<rect x="343.94" y="139.206" transform="matrix(0.7071 -0.7071 0.7071 0.7071 -8.4688 296.4006)" width="19.228" height="38.434"/>
	</g>
</g>
<g>
	<g>
		
			<rect x="380.221" y="102.932" transform="matrix(0.7071 -0.7071 0.7071 0.7071 27.8075 311.4305)" width="19.228" height="38.432"/>
	</g>
</g>
<g>
	<g>
		
			<rect x="416.501" y="66.654" transform="matrix(0.7071 -0.7071 0.7071 0.7071 64.0862 326.4602)" width="19.228" height="38.434"/>
	</g>
</g>
<g>
	<g>
		
			<rect x="271.462" y="211.619" transform="matrix(0.7071 -0.7071 0.7071 0.7071 -80.9629 266.3872)" width="19.228" height="38.61"/>
	</g>
</g>
<g>
	<g>
		
			<rect x="389.331" y="184.456" transform="matrix(0.7071 -0.7071 0.7071 0.7071 -27.1694 341.7513)" width="19.228" height="38.432"/>
	</g>
</g>
<g>
	<g>
		
			<rect x="298.703" y="93.828" transform="matrix(0.7071 -0.7071 0.7071 0.7071 10.3692 251.1226)" width="19.228" height="38.432"/>
	</g>
</g>
<g>
	<g>
		
			<rect x="334.818" y="57.591" transform="matrix(0.7088 -0.7054 0.7054 0.7088 46.0862 265.3431)" width="19.228" height="38.521"/>
	</g>
</g>
<g>
	<g>
		<rect x="425.518" y="148.279" transform="matrix(0.7054 -0.7088 0.7088 0.7054 9.4349 357.78)" width="19.228" height="38.521"/>
	</g>
</g>
<g>
	<g>
		
			<rect x="353.043" y="220.733" transform="matrix(0.7071 -0.7071 0.7071 0.7071 -63.4503 326.7158)" width="19.228" height="38.434"/>
	</g>
</g>
<g>
	<g>
		<rect x="262.411" y="130.119" transform="matrix(0.7071 -0.7071 0.7071 0.7071 -25.922 236.09)" width="19.228" height="38.434"/>
	</g>
</g>
<g>
	<g>
		
			<rect x="307.665" y="175.485" transform="matrix(0.7071 -0.7071 0.7071 0.7071 -44.7457 281.3768)" width="19.228" height="38.432"/>
	</g>
</g>
<g>
</g>
<g>
</g>
<g>
</g>
<g>
</g>
<g>
</g>
<g>
</g>
<g>
</g>
<g>
</g>
<g>
</g>
<g>
</g>
<g>
</g>
<g>
</g>
<g>
</g>
<g>
</g>
<g>
</g>
</svg>
