<?xml version="1.0" encoding="iso-8859-1"?>
<!-- Generator: Adobe Illustrator 18.0.0, SVG Export Plug-In . SVG Version: 6.00 Build 0)  -->
<!DOCTYPE svg PUBLIC "-//W3C//DTD SVG 1.1//EN" "http://www.w3.org/Graphics/SVG/1.1/DTD/svg11.dtd">
<svg version="1.1" id="Capa_1" xmlns="http://www.w3.org/2000/svg" xmlns:xlink="http://www.w3.org/1999/xlink" x="0px" y="0px"
	 viewBox="0 0 495.893 495.893" style="enable-background:new 0 0 495.893 495.893;" xml:space="preserve">
<g>
	<path d="M379.283,272.46c-25.463,0-46.18,19.323-46.18,43.074c0,11.724,6.915,18.723,18.497,18.723
		c5.107,0,10.627-1.279,15.965-2.515c4.296-0.995,8.738-2.024,11.718-2.024c2.577,0,6.793,0.983,10.87,1.934
		c5.495,1.281,11.176,2.605,16.495,2.605c0.001,0,0.002,0,0.003,0c11.782-0.001,18.816-7.001,18.816-18.723
		C425.466,291.783,404.749,272.46,379.283,272.46z M408.495,317.281c-0.32,0.075-0.901,0.165-1.847,0.165
		c-3.385,0.001-8.11-1.101-12.679-2.167c-5.233-1.22-10.177-2.373-14.687-2.373c-4.901,0-10.295,1.25-15.511,2.458
		c-4.418,1.024-8.986,2.082-12.172,2.082c-0.739,0-1.229-0.059-1.53-0.116c-0.074-0.334-0.156-0.906-0.156-1.797
		c0-14.482,13.175-26.263,29.369-26.263c16.196,0,29.373,11.781,29.373,26.263C408.656,316.419,408.568,316.972,408.495,317.281z"/>
	<path d="M352.589,259.618c0-13.322-9.322-24.16-20.78-24.16c-11.458,0-20.781,10.838-20.781,24.16
		c0,13.322,9.322,24.16,20.781,24.16C343.268,283.778,352.589,272.94,352.589,259.618z M331.81,266.967
		c-1.58,0-3.97-2.931-3.97-7.35c0-4.419,2.39-7.35,3.97-7.35c1.581,0,3.969,2.932,3.969,7.35
		C335.779,264.036,333.39,266.967,331.81,266.967z"/>
	<path d="M380.586,257.723c11.458,0,20.781-10.838,20.781-24.16c0-13.322-9.322-24.16-20.781-24.16
		c-11.458,0-20.779,10.838-20.779,24.16C359.807,246.885,369.128,257.723,380.586,257.723z M380.586,226.212
		c1.581,0,3.971,2.932,3.971,7.35c0,4.418-2.39,7.35-3.971,7.35c-1.58,0-3.969-2.932-3.969-7.35
		C376.617,229.144,379.006,226.212,380.586,226.212z"/>
	<path d="M429.365,235.458c-11.458,0-20.781,10.838-20.781,24.16c0,13.322,9.322,24.16,20.781,24.16s20.78-10.838,20.78-24.16
		C450.145,246.295,440.823,235.458,429.365,235.458z M429.365,266.967c-1.581,0-3.971-2.931-3.971-7.35
		c0-4.419,2.39-7.35,3.971-7.35c1.581,0,3.97,2.932,3.97,7.35C433.335,264.036,430.945,266.967,429.365,266.967z"/>
	<path d="M231.451,104.962c-0.967-4.497-0.821-9.69-0.667-15.188c0.241-8.575,0.49-17.441-3.418-25.576
		c-4.415-9.187-12.494-14.971-19.622-20.074c-3.957-2.833-7.694-5.508-10.257-8.357c-2.825-3.139-5.265-7.159-7.848-11.414
		c-4.904-8.079-9.974-16.432-18.923-20.919C166.109,1.123,160.868,0,154.693,0c-4.887,0-9.722,0.683-14.398,1.343
		c-4.286,0.605-8.334,1.177-12.033,1.177c-3.698,0-7.747-0.572-12.033-1.177C111.554,0.683,106.719,0,101.832,0
		C95.658,0,90.417,1.123,85.81,3.433c-8.949,4.488-14.02,12.841-18.923,20.92c-2.583,4.255-5.023,8.274-7.847,11.414
		c-2.563,2.848-6.301,5.524-10.258,8.356C41.653,49.227,33.573,55.012,29.158,64.2c-3.908,8.134-3.659,17-3.418,25.575
		c0.155,5.499,0.301,10.692-0.667,15.188c-0.858,3.986-3.063,8.389-5.396,13.051c-3.726,7.442-7.95,15.877-7.95,25.457
		c0,9.581,4.224,18.016,7.95,25.459c2.334,4.663,4.539,9.066,5.397,13.052c0.968,4.497,0.821,9.69,0.667,15.188
		c-0.241,8.575-0.49,17.441,3.418,25.575c4.416,9.188,12.495,14.972,19.623,20.076c3.956,2.833,7.694,5.508,10.257,8.355
		c2.824,3.14,5.264,7.159,7.847,11.414c4.903,8.079,9.974,16.432,18.923,20.92c1.966,0.986,4.056,1.742,6.276,2.301
		c0.573,14.226,1.51,47.853-0.013,59.496c-1.531,11.702-3.827,23.953-6.048,35.8c-3.309,17.652-6.167,32.897-6.167,43.983
		c0,39.703,21.262,70.802,48.404,70.802c27.143,0,48.404-31.1,48.404-70.802c0-11.086-2.857-26.331-6.166-43.983
		c-2.22-11.847-4.517-24.098-6.048-35.8c-1.699-12.99-0.354-50.728-0.011-59.496c2.219-0.558,4.309-1.314,6.274-2.3
		c8.949-4.488,14.02-12.841,18.923-20.92c2.583-4.255,5.023-8.275,7.848-11.415c2.563-2.848,6.3-5.523,10.257-8.356
		c7.128-5.104,15.208-10.888,19.623-20.077c3.908-8.134,3.659-17,3.418-25.576c-0.155-5.498-0.301-10.691,0.667-15.188
		c0.858-3.986,3.063-8.389,5.397-13.051c3.726-7.442,7.949-15.877,7.949-25.458c0-9.58-4.224-18.016-7.949-25.458
		C234.514,113.352,232.309,108.948,231.451,104.962z M128.262,479.082c-17.126,0-31.594-24.726-31.594-53.992
		c0-9.524,2.855-24.757,5.878-40.885c2.263-12.072,4.603-24.555,6.194-36.717c1.808-13.82,0.622-49.795,0.195-60.952
		c2.463-0.255,4.899-0.598,7.293-0.936c4.286-0.605,8.335-1.177,12.033-1.177c3.699,0,7.747,0.572,12.033,1.177
		c2.393,0.338,4.83,0.681,7.293,0.936c-0.426,11.156-1.612,47.131,0.195,60.951c1.591,12.162,3.931,24.646,6.194,36.717
		c3.023,16.128,5.878,31.361,5.878,40.885C159.856,454.357,145.388,479.082,128.262,479.082z M221.816,161.403
		c-2.7,5.394-5.493,10.971-6.799,17.041c-1.394,6.479-1.213,12.944-1.037,19.197c0.193,6.873,0.376,13.365-1.767,17.823
		c-2.55,5.307-8.236,9.378-14.256,13.688c-4.514,3.232-9.181,6.573-12.968,10.781c-3.88,4.313-6.85,9.205-9.722,13.936
		c-3.838,6.324-7.464,12.297-12.088,14.616c-2.244,1.125-4.941,1.649-8.486,1.649c-3.706,0-7.757-0.572-12.047-1.178
		c-4.672-0.66-9.504-1.343-14.384-1.343c-4.879,0-9.712,0.683-14.384,1.342c-4.29,0.606-8.342,1.179-12.048,1.179
		c-3.545,0-6.242-0.524-8.486-1.65c-4.625-2.319-8.25-8.291-12.088-14.615c-2.872-4.731-5.842-9.624-9.722-13.937
		c-3.786-4.208-8.454-7.549-12.967-10.78c-6.02-4.31-11.706-8.38-14.256-13.688c-2.142-4.458-1.959-10.949-1.766-17.822
		c0.176-6.252,0.357-12.718-1.037-19.197c-1.306-6.069-4.099-11.647-6.799-17.041c-3.173-6.339-6.17-12.325-6.17-17.933
		c0-5.607,2.997-11.593,6.17-17.931c2.701-5.394,5.493-10.971,6.799-17.04c1.395-6.479,1.213-12.945,1.037-19.197
		c-0.193-6.872-0.375-13.364,1.767-17.823c2.55-5.307,8.236-9.378,14.256-13.688c4.514-3.231,9.182-6.573,12.969-10.781
		c3.879-4.313,6.849-9.205,9.721-13.936c3.838-6.324,7.464-12.297,12.088-14.616c2.245-1.125,4.941-1.649,8.487-1.649
		c3.706,0,7.758,0.572,12.047,1.178c4.672,0.66,9.503,1.342,14.383,1.342c4.879,0,9.711-0.682,14.383-1.342
		c4.29-0.606,8.342-1.178,12.048-1.178c3.546,0,6.243,0.524,8.487,1.65c4.625,2.319,8.25,8.292,12.088,14.615
		c2.872,4.731,5.842,9.624,9.722,13.936c3.786,4.208,8.454,7.549,12.968,10.781c6.019,4.31,11.705,8.379,14.254,13.686
		c2.143,4.459,1.96,10.95,1.767,17.823c-0.176,6.252-0.357,12.718,1.037,19.197c1.306,6.069,4.099,11.647,6.799,17.041
		c3.173,6.338,6.17,12.326,6.17,17.933C227.987,149.079,224.99,155.065,221.816,161.403z"/>
	<path d="M455.345,76.711H437.21V50.41c0-15.892-12.929-28.82-28.82-28.82h-51.719c-15.891,0-28.82,12.929-28.82,28.82v26.301
		h-18.135c-15.892,0-28.82,12.929-28.82,28.821v285.131c0,15.892,12.929,28.82,28.82,28.82h145.628
		c15.892,0,28.82-12.929,28.82-28.82V105.531C484.166,89.64,471.237,76.711,455.345,76.711z M297.707,198.318h169.648v149.444
		H297.707V198.318z M344.662,50.41c0-6.623,5.387-12.01,12.01-12.01h51.719c6.622,0,12.01,5.387,12.01,12.01v26.301l-75.738,0V50.41
		z M309.717,93.521l145.628,0.001c6.622,0,12.01,5.388,12.01,12.01v75.977H297.707v-75.977
		C297.707,98.909,303.094,93.521,309.717,93.521z M455.345,402.673H309.717c-6.623,0-12.01-5.388-12.01-12.01v-26.09h169.648v26.09
		C467.355,397.285,461.968,402.673,455.345,402.673z"/>
</g>
<g>
</g>
<g>
</g>
<g>
</g>
<g>
</g>
<g>
</g>
<g>
</g>
<g>
</g>
<g>
</g>
<g>
</g>
<g>
</g>
<g>
</g>
<g>
</g>
<g>
</g>
<g>
</g>
<g>
</g>
</svg>
